<svg xmlns="http://www.w3.org/2000/svg" xmlns:xlink="http://www.w3.org/1999/xlink" version="1.1" x="0px" y="0px" viewBox="-255 347 100 125" enable-background="new -255 347 100 100" xml:space="preserve"><g><g><path d="M-177.3,392.6c-2.3,0-3.8,0.4-5.5,1.3c3-7.6,13-20.5,13-22.5c0-0.9-0.4-1.1-1.3-1.1c-7.9,0-25.3,20.1-25.3,35.9    c0,7.1,3.2,14.5,12.6,14.5c10.6,0,16.4-9.7,16.4-17.5C-167.5,397.3-170.5,392.6-177.3,392.6z M-224.4,392.6    c-2.3,0-3.8,0.4-5.5,1.3c3-7.6,13-20.5,13-22.5c0-0.9-0.4-1.1-1.3-1.1c-7.9,0-25.3,20.1-25.3,35.9c0,7.1,3.2,14.5,12.6,14.5    c10.6,0,16.4-9.7,16.4-17.5C-214.6,397.3-217.5,392.6-224.4,392.6z"/></g></g><text x="-255" y="462" fill="#000000" font-size="5px" font-weight="bold" font-family="'Helvetica Neue', Helvetica, Arial-Unicode, Arial, Sans-serif">Created by Rohith M S</text><text x="-255" y="467" fill="#000000" font-size="5px" font-weight="bold" font-family="'Helvetica Neue', Helvetica, Arial-Unicode, Arial, Sans-serif">from the Noun Project</text></svg>