<svg xmlns="http://www.w3.org/2000/svg" xmlns:xlink="http://www.w3.org/1999/xlink" width="79px" height="80px"  viewBox="-2.499445676803589 -0.5099497437477112 73.5860824584961 74.40919494628906" preserveAspectRatio="xMidYMid meet"><rect id="svgEditorBackground" x="0.257999986410141" y="0.8570001721382141" width="67.74199676513672" height="66.5719985961914" style="fill:none;stroke:none;"/><defs id="svgEditorDefs"><linearGradient gradientUnits="objectBoundingBox" id="lgrd2-black-white" spreadMethod="pad" x1="0%" x2="100%" y1="0%" y2="100%"><stop offset="0%" stop-color="black"/><stop offset="100%" stop-color="white"/></linearGradient></defs>
<path fill-rule="evenodd" fill="rgb(255, 255, 255)" d="M64.45931608545699,65.88273529633658C66.44831608545702,65.88273529633658,68.06131608545707,67.48173529633661,68.06131608545707,69.45473529633665C68.06131608545707,71.42673529633669,66.44831608545702,73.02573529633672,64.45931608545699,73.02573529633672C62.47031608545697,73.02573529633672,60.85731608545698,71.42673529633669,60.85731608545698,69.45473529633665C60.85731608545698,67.48173529633661,62.47031608545697,65.88273529633658,64.45931608545699,65.88273529633658Z"/>
<path fill-rule="evenodd" fill="rgb(255, 255, 255)" d="M34.47722487071709,65.88273529633658C36.466224870717085,65.88273529633658,38.079224870717084,67.48173529633661,38.079224870717084,69.45473529633665C38.079224870717084,71.42673529633669,36.466224870717085,73.02573529633672,34.47722487071709,73.02573529633672C32.48822487071709,73.02573529633672,30.875224870717087,71.42673529633669,30.875224870717087,69.45473529633665C30.875224870717087,67.48173529633661,32.48822487071709,65.88273529633658,34.47722487071709,65.88273529633658Z"/>
<path fill-rule="evenodd" d="M4.518488458697082,65.88273529633658C6.508488458697084,65.88273529633658,8.120488458697082,67.48173529633661,8.120488458697082,69.45473529633664C8.120488458697082,71.42673529633669,6.508488458697084,73.02573529633672,4.518488458697082,73.02573529633672C2.529488458697081,73.02573529633672,0.9164884586970798,71.42673529633669,0.9164884586970798,69.45473529633664C0.9164884586970798,67.48173529633661,2.529488458697081,65.88273529633658,4.518488458697082,65.88273529633658Z" style="" fill="rgb(255, 255, 255)"/>
<path fill-rule="evenodd" stroke="rgb(255, 255, 255)" stroke-width="2px" stroke-linecap="butt" stroke-linejoin="miter" fill="none" d="M34.500,1.000 C53.002,1.000 68.000,15.870 68.000,34.214 C68.000,52.558 53.002,67.429 34.500,67.429 C15.998,67.429 1.000,52.558 1.000,34.214 C1.000,15.870 15.998,1.000 34.500,1.000 Z"/>
<path fill-rule="evenodd" stroke="rgb(255, 255, 255)" stroke-width="2px" stroke-linecap="butt" stroke-linejoin="miter" fill="none" d="M63.3667302682167,69.4505917725817L34.5517302682167,14.45359177258164L5.737730268216702,69.4505917725817L63.3667302682167,69.4505917725817Z"/>
</svg>
